<?xml version="1.0" encoding="UTF-8"?>
<svg id="Layer_1" data-name="Layer 1" xmlns="http://www.w3.org/2000/svg" viewBox="0 0 414.26 428.43">
  <defs>
    <style>
      .cls-1 {
        fill: #030202;
      }

      .cls-2 {
        fill: #f6982c;
      }

      .cls-3 {
        fill: #fefefd;
      }
    </style>
  </defs>
  <path class="cls-3" d="M.03,428.39C.03,286.14,.04,143.88,0,1.63,0,.3,.3,0,1.63,0,139.16,.04,276.7,.03,414.23,.03c0,142.26,0,284.51,.03,426.77,0,1.33-.3,1.63-1.63,1.63-137.54-.04-275.07-.03-412.61-.03ZM307.86,227.63c2.42,.43,4.51,.97,6.64,1.16,7.18,.66,13.99-.62,20.56-3.67,6.51-3.02,11.8-7.51,15.38-13.56,3.7-6.25,5.9-13.18,6.32-20.56,.45-7.84-1.51-15.03-5.59-21.68-1.44-2.35-3.06-4.58-4.53-6.92-1.42-2.26-1.41-3.36,.42-4.99,5.39-4.8,7.63-10.87,7.77-17.94,.02-1.02,.68-2.31,1.47-2.97,1.28-1.07,2.87-1.78,4.4-2.52,2.51-1.22,2.75-1.73,1.61-4.27-2.05-4.56-4.09-9.13-6.18-13.68-3.76-8.17-7.08-16.58-11.42-24.43-9.39-17-23.86-25.07-43.49-23.01-1.49,.16-1.97-.5-2.31-1.74-1.35-4.99-3.51-9.62-6.41-13.91-5.31-7.84-12.44-13.63-20.49-18.42-.52-.31-1.04-.74-1.39-1.24-9.68-14.1-22.85-21.78-40.14-22.06-1.29-.02-2.62-.52-3.83-1.02-3.48-1.43-6.81-3.31-10.39-4.42-11.91-3.73-23.29-1.59-34.36,3.51-1.77,.82-3.77,1.37-5.71,1.55-14.17,1.26-25.77,7.23-34.29,18.69-2.29,3.08-5.08,5.31-8.36,7.13-5.58,3.09-10.34,7.19-14.38,12.13-4.37,5.35-7.55,11.37-10.14,17.73-.45,1.1-.97,1.46-2.22,1.34-19.09-1.94-32.08,8.33-39.95,23.14-3.06,5.76-5.48,11.86-8.28,17.76-3.7,7.82-7.48,15.59-11.36,23.66,1.68,.9,3.21,1.89,4.87,2.58,3.23,1.33,4.2,3.91,4.16,7.06-.07,5.55,1.65,10.3,5.92,14,.35,.3,.64,.69,.93,1.06,1.68,2.14,1.71,2.84,.06,5.1-3.39,4.63-6.34,9.47-8.1,15-2.9,9.08-2.49,18.08,.85,26.85,2.25,5.92,5.82,11.11,10.36,15.64,7.53,7.52,16.47,10.99,27.09,9.81,2.68-.3,5.33-.92,8-1.39,2.34-.41,2.67-.15,2.86,2.13,.05,.59,.13,1.17,.24,1.75,.89,4.72,1.78,9.44,2.7,14.16,.33,1.72,.59,3.47,1.13,5.13,1.16,3.57,2.44,7.1,3.77,10.61,.63,1.68,.39,2.9-1.22,3.86-1.06,.63-2.01,1.44-2.97,2.22-9,7.26-14.99,16.35-16.85,27.91-2.25,13.93,.99,27.11,6.17,39.82,2.96,7.27,6.94,14.12,10.5,21.14,1.65,3.25,1.73,3.27-1.13,5.52-8.2,6.45-9.85,14.69-6.62,24.01,1.44,4.18,5.93,7.69,10.89,7.44,3.53-.18,7.08-.08,10.62-.11,3.14-.03,3.7,.77,3.1,3.85-.44,2.24-.8,4.53-.83,6.81-.09,9.33,5.35,15.67,14.64,16.9,9.47,1.25,18.99,1.06,28.35-.8,13.68-2.72,23.12-10.17,25.78-24.58,.18-.99,.62-1.14,1.54-1.14,6.67,.06,13.33,.05,20,.05,2.3,0,4.6-.07,6.9,.03,.55,.02,1.36,.46,1.57,.93,.48,1.06,.72,2.23,.96,3.38,1.32,6.36,4.82,11.41,9.65,15.55,3.66,3.13,7.82,5.53,12.68,6.08,4.26,.48,8.56,.74,12.85,.73,5.05,0,10.16,.02,15.14-.71,8.33-1.23,15.51-8.15,16.15-17.12,.16-2.22,.13-4.47-.05-6.69-.13-1.62,.14-2.33,1.99-2.31,2.65,.03,5.31-.17,7.94-.45,4.13-.44,8.17-1.28,11.81-3.42,3.75-2.2,5.84-5.4,5.66-9.88-.15-3.76-1.63-7.09-3.43-10.3-1-1.78-2.13-3.48-3.26-5.32,.65-.26,1.2-.45,1.72-.69,5.4-2.47,10.98-4.62,16.17-7.48,23.95-13.21,37.33-33.42,39.31-60.84,1.33-18.38-2.24-36.13-7.65-53.57-.4-1.28-.69-3.14-2.54-2.83-1.78,.29-1.87,2.2-1.95,3.59-.65,11.79-2.77,23.28-7.04,34.31-4.83,12.45-12.29,22.91-23.5,30.45-.52,.35-1.06,.66-1.8,1.12,.07-.88,.12-1.46,.16-2.04,.41-6.17-.03-12.26-1.8-18.21-3.25-10.93-10.39-18.58-20.32-23.8-1.32-.69-1.59-1.24-.98-2.68,4.52-10.64,6.76-21.79,7.34-33.31,.03-.62,.12-1.23,.16-1.69Z"/>
  <path class="cls-1" d="M307.86,227.63c-.05,.47-.13,1.08-.16,1.69-.59,11.51-2.83,22.67-7.34,33.31-.61,1.43-.33,1.98,.98,2.68,9.93,5.22,17.07,12.87,20.32,23.8,1.77,5.95,2.2,12.04,1.8,18.21-.04,.58-.09,1.17-.16,2.04,.74-.46,1.28-.77,1.8-1.12,11.21-7.54,18.67-18,23.5-30.45,4.28-11.03,6.39-22.52,7.04-34.31,.08-1.39,.17-3.29,1.95-3.59,1.85-.31,2.14,1.56,2.54,2.83,5.41,17.45,8.98,35.19,7.65,53.57-1.98,27.42-15.36,47.63-39.31,60.84-5.19,2.86-10.77,5.01-16.17,7.48-.52,.24-1.07,.43-1.72,.69,1.14,1.84,2.27,3.54,3.26,5.32,1.79,3.21,3.28,6.53,3.43,10.3,.18,4.48-1.91,7.67-5.66,9.88-3.64,2.14-7.69,2.98-11.81,3.42-2.64,.28-5.3,.49-7.94,.45-1.85-.02-2.12,.68-1.99,2.31,.18,2.22,.21,4.47,.05,6.69-.64,8.98-7.83,15.89-16.15,17.12-4.98,.74-10.09,.71-15.14,.71-4.28,0-8.59-.25-12.85-.73-4.87-.55-9.02-2.95-12.68-6.08-4.83-4.14-8.33-9.18-9.65-15.55-.24-1.15-.48-2.33-.96-3.38-.21-.46-1.02-.9-1.57-.93-2.3-.1-4.6-.03-6.9-.03-6.67,0-13.33,0-20-.05-.92,0-1.36,.15-1.54,1.14-2.66,14.4-12.1,21.86-25.78,24.58-9.36,1.86-18.88,2.05-28.35,.8-9.29-1.23-14.73-7.57-14.64-16.9,.02-2.27,.39-4.57,.83-6.81,.6-3.08,.04-3.88-3.1-3.85-3.54,.03-7.09-.07-10.62,.11-4.96,.25-9.45-3.26-10.89-7.44-3.22-9.32-1.58-17.56,6.62-24.01,2.86-2.25,2.78-2.27,1.13-5.52-3.56-7.02-7.54-13.87-10.5-21.14-5.18-12.71-8.41-25.89-6.17-39.82,1.87-11.56,7.86-20.65,16.85-27.91,.96-.78,1.92-1.59,2.97-2.22,1.61-.96,1.85-2.18,1.22-3.86-1.32-3.51-2.6-7.04-3.77-10.61-.54-1.66-.8-3.41-1.13-5.13-.91-4.72-1.81-9.44-2.7-14.16-.11-.58-.19-1.17-.24-1.75-.19-2.29-.53-2.54-2.86-2.13-2.67,.47-5.31,1.1-8,1.39-10.62,1.18-19.56-2.29-27.09-9.81-4.53-4.53-8.1-9.72-10.36-15.64-3.34-8.78-3.75-17.78-.85-26.85,1.77-5.53,4.71-10.37,8.1-15,1.65-2.25,1.62-2.96-.06-5.1-.29-.37-.57-.76-.93-1.06-4.27-3.7-5.99-8.45-5.92-14,.04-3.14-.93-5.73-4.16-7.06-1.66-.68-3.19-1.68-4.87-2.58,3.88-8.06,7.66-15.84,11.36-23.66,2.8-5.9,5.22-12,8.28-17.76,7.87-14.81,20.86-25.08,39.95-23.14,1.24,.13,1.77-.24,2.22-1.34,2.59-6.36,5.77-12.38,10.14-17.73,4.04-4.94,8.8-9.04,14.38-12.13,3.29-1.82,6.07-4.05,8.36-7.13,8.53-11.46,20.12-17.44,34.29-18.69,1.94-.17,3.94-.73,5.71-1.55,11.07-5.11,22.45-7.24,34.36-3.51,3.57,1.12,6.91,2.99,10.39,4.42,1.22,.5,2.55,1,3.83,1.02,17.28,.28,30.46,7.96,40.14,22.06,.34,.5,.86,.93,1.39,1.24,8.05,4.79,15.18,10.58,20.49,18.42,2.9,4.29,5.05,8.92,6.41,13.91,.34,1.24,.82,1.89,2.31,1.74,19.63-2.06,34.11,6.01,43.49,23.01,4.33,7.85,7.66,16.26,11.42,24.43,2.09,4.55,4.13,9.12,6.18,13.68,1.14,2.54,.91,3.05-1.61,4.27-1.52,.74-3.12,1.45-4.4,2.52-.79,.66-1.45,1.95-1.47,2.97-.14,7.08-2.38,13.14-7.77,17.94-1.83,1.63-1.84,2.73-.42,4.99,1.47,2.33,3.08,4.57,4.53,6.92,4.08,6.64,6.04,13.84,5.59,21.68-.42,7.38-2.62,14.31-6.32,20.56-3.58,6.05-8.88,10.54-15.38,13.56-6.57,3.05-13.39,4.33-20.56,3.67-2.13-.2-4.22-.73-6.64-1.16Zm-79.89,114.99h0c0,2.42,0,4.84,0,7.26,0,12.98-.04,25.96,.02,38.94,.03,6.62,1.92,12.65,6.28,17.79,5.48,6.46,12.59,9.26,20.9,9.43,5.78,.11,11.55,.21,17.33,.23,1.04,0,2.13-.21,3.1-.58,8.22-3.22,12.67-12.11,8.03-21.43-4.2-8.42-11.75-12.43-20.65-13.89-4-.66-8.17-.38-12.26-.42-1.88-.02-3.22-.86-3.52-2.5-.31-1.74,.46-3.1,2.22-3.64,.99-.3,2.06-.5,3.09-.52,3.89-.06,7.79-.04,11.68,0,1.06,.01,1.55-.25,1.71-1.43,.49-3.59,1.21-7.14,1.71-10.73,.44-3.13,.66-6.29,1.08-9.42,1.76-13.2,3.63-26.39,5.34-39.59,1.39-10.69,4.45-20.78,9.72-30.24,3.03-5.45,5.91-11.02,8.3-16.76,4.76-11.45,7.48-23.45,8.31-35.85,.15-2.22-.53-3.68-2.44-4.82-2.42-1.45-4.8-3.02-7.05-4.72-2.67-2.02-5.23-3.65-8.22-.61-.04,.04-.11,.03-.16,.06-3.17,1.56-6.47,2.9-9.48,4.74-4.27,2.6-8.35,5.52-12.46,8.38-8.28,5.76-17.94,7.59-27.52,9.47-4.02,.79-8.1,1.05-12.1,2.28-9.43,2.91-19.09,3.89-28.79,1.55-7.16-1.72-14.36-3.14-21.63-4.33-8.24-1.35-15.89-4.56-22.47-9.77-6.55-5.19-14.13-8.48-21.44-12.27-1.46-.76-3.9-.31-5.63,.3-1.83,.65-3.28,2.31-5.05,3.24-1.6,.84-2.26,1.95-2.09,3.67,.35,3.58,.62,7.16,1.05,10.73,1.26,10.68,4.3,20.87,8.82,30.6,3.2,6.89,6.51,13.73,10.06,20.44,2.65,5,4.81,10.11,5.58,15.73,.48,3.5,.85,7.02,1.34,10.53,1.58,11.44,3.18,22.88,4.77,34.32,1.07,7.64,2.16,15.28,3.19,22.93,.17,1.29,.71,1.62,1.95,1.59,3.18-.09,6.37-.05,9.56-.02,1.41,.02,2.84,.04,4.23,.26,2.07,.32,3,1.57,2.86,3.55-.12,1.79-1.06,2.59-3.26,2.7-.76,.04-1.53-.05-2.3-.08-5.96-.25-11.8,.33-17.33,2.7-10.26,4.41-15.67,11.25-14.84,22.51,.52,7.02,4.39,10.98,11.41,11.1,6.31,.1,12.63,.1,18.94-.04,8.49-.18,15.52-3.59,20.98-10.1,4.51-5.37,6.07-11.75,6.07-18.59,0-30.62-.02-61.24-.02-91.86,0-.82-.15-1.78,.2-2.44,.58-1.09,1.37-2.51,2.35-2.78,.77-.21,2.19,.92,2.9,1.8,.59,.73,.79,1.96,.79,2.97,.03,30.09,.02,60.18,.02,90.26,0,.65,.05,1.3,.05,1.95,0,1.2,.61,1.68,1.76,1.68,8.08,.01,16.16,.05,24.25,.05,1.61,0,2.53-.8,2.45-2.52-.02-.47,0-.94,0-1.42-.01-29.68-.02-59.35-.02-89.03,0-1.17,.11-2.36,.3-3.51,.25-1.55,1.09-2.66,2.8-2.66,1.69,0,2.56,1.11,2.86,2.62,.24,1.2,.36,2.45,.36,3.68,.02,15.52,.02,31.03,.02,46.55Zm-24.16-250.54c29.26,0,58.52,0,87.78,.03,1.41,0,1.91-.34,2.05-1.81,.49-5.11-.04-10.13-1.18-15.1-3.24-14.13-10.67-25.34-23.32-32.7-3.86-2.25-7.14-4.97-9.84-8.45-7.04-9.1-16.45-13.62-27.76-14.59-2.21-.19-4.44-.55-6.58-1.13-2.32-.63-4.52-1.67-6.81-2.43-10.15-3.37-20.21-3.2-30.34,.37-4.25,1.5-8.71,2.64-13.16,3.23-10.24,1.37-18.8,5.54-25.3,13.67-3.49,4.37-7.61,7.99-12.45,10.86-8.33,4.93-14.78,11.64-18.8,20.54-3.71,8.21-5.8,16.66-4.22,25.76,.25,1.41,.73,1.78,2.13,1.78,29.26-.04,58.52-.03,87.78-.04Zm-88.47,96.71c-.27,4.45,.58,8.84,3.62,12.68,5.12,6.48,11.38,11.42,19.03,14.52,5.4,2.19,10.29,5.09,14.82,8.79,6.4,5.23,13.86,8.16,22.13,8.93,5.05,.47,10.06,1.06,14.92,2.69,9.54,3.22,19.11,3.13,28.59-.33,3.19-1.16,6.39-1.91,9.81-2,11.09-.32,21.19-3.71,30.12-10.34,5.18-3.85,10.73-7.02,16.48-9.92,3.19-1.61,6.26-3.54,9.14-5.66,3.85-2.85,7.35-6.16,9.22-10.73,2.81-6.88,1.62-13.64-1.41-20.03-5.55-11.72-20.62-19.04-33.99-16.93-8.53,1.35-16.67,.19-24.24-4.18-6.21-3.58-12.93-5.69-19.97-6.76-12.98-1.97-25.37-.19-36.98,6.17-8.19,4.48-16.91,5.88-26.16,4.79-3.24-.38-6.61-.43-9.85-.03-11.25,1.36-26.37,12.17-25.28,28.34Zm178.74,22.66c8.81,6.88,18.39,11.28,30.02,9.38,6.43-1.05,12.04-3.59,16.5-8.44,3.31-3.59,5.37-7.87,6.83-12.46,3.65-11.47,2.44-22.08-5.66-31.47-5.01-5.81-5.02-11.24,.04-16.74,5.22-5.67,8.03-17.9,.43-26.26-1.57-1.73-2.45-3.73-2.6-6.05-.12-1.82-.16-3.65-.29-5.48-.31-4.43-3.17-7.08-7.57-7.08-9.74,0-19.47-.01-29.21-.02-3,0-3.41,.38-3.17,3.42,.38,4.76,.83,9.52,1.28,14.27,.59,6.26,.18,12.4-2.27,18.25-.97,2.32-.72,4.34,.56,6.37,1.13,1.79,2.38,3.53,3.36,5.4,3.3,6.3,5.24,12.98,5.47,20.13,.31,9.54-1.61,18.54-6.73,26.68-2.12,3.38-4.55,6.57-7,10.09Zm-233.79-22.24c.66,3.39,1.08,6.86,2.04,10.17,2.1,7.22,5.92,13.38,12.47,17.43,6.38,3.94,13.34,5.24,20.81,4.23,7.04-.95,13.51-3.12,19.04-7.76,1.14-.95,1.14-1.58,.38-2.72-2.29-3.43-4.44-6.95-6.7-10.4-4.42-6.75-6.24-14.4-6.98-22.22-1.04-10.92,1.55-21.19,6.94-30.73,.87-1.55,1.13-3.05,.5-4.72-1.88-5.01-2.31-10.2-1.93-15.49,.41-5.82,.82-11.64,1.17-17.47,.13-2.18-.31-2.62-2.49-2.62-9.56,0-19.11,.04-28.67,.04-1.8,0-3.03,.81-3.83,2.36-1.39,2.71-3.13,5.33-2.23,8.65,.1,.37,0,.85-.16,1.21-1.13,2.44-2,5.06-3.52,7.23-3.35,4.77-4.52,9.87-3.54,15.56,.75,4.35,3.09,7.81,5.78,11.16,3.23,4.03,3.5,7.99,.92,12.45-.79,1.37-1.82,2.6-2.78,3.87-4.39,5.83-6.75,12.37-7.21,19.78Zm236.51,199.56v-.02c2.06,0,4.13,.04,6.19,0,5.38-.12,9.29-4.35,8.5-9.51-.63-4.12-2.29-7.92-4.94-11.19-.64-.79-1.57-1.49-2.52-1.86-5.38-2.07-10.9-3.39-16.73-3.06-2.79,.16-4.66-1.19-4.72-3.18-.06-1.93,1.88-3.42,4.61-3.32,3.06,.11,6.13,.33,9.17,.68,1.9,.22,3.11-.34,4.04-2.05,2-3.67,4.17-7.25,6.22-10.9,8.55-15.2,12.42-31.38,9.88-48.8-1.57-10.8-6.77-19.23-16.87-24.16-2.18-1.06-2.61-.94-3.73,1.19-2.69,5.11-5.17,10.34-8.11,15.3-3.98,6.73-6.17,13.91-7.11,21.64-1.53,12.51-3.37,24.99-5.13,37.47-.51,3.59-1.28,7.15-1.81,10.74-.36,2.44-.42,4.93-.77,7.37-.36,2.53-.95,5.03-1.37,7.55-.21,1.27-.03,2.39,1.32,3.13,1.53,.84,2.88,2.01,4.42,2.81,3.29,1.71,5.99,4.05,8.11,7.07,.13,.19,.32,.35,.48,.52,1.7,1.78,3.63,2.92,6.26,2.62,1.51-.17,3.06-.03,4.6-.03Zm-179.71,.31s0,.05,0,.07c2.24,0,4.49-.11,6.72,.04,1.86,.13,3.11-.48,4.11-2.07,2.37-3.77,5.6-6.72,9.5-8.81,3.82-2.04,5.15-5.04,4.56-9.21-1.17-8.29-2.21-16.59-3.36-24.88-1.33-9.52-2.74-19.02-4.1-28.53-.88-6.18-1.11-12.51-3.51-18.35-1.63-3.96-3.69-7.75-5.65-11.57-2.28-4.45-4.66-8.86-7.01-13.28-1.22-2.29-2.18-2.56-4.35-1.16-1.04,.67-2,1.45-2.98,2.21-9.25,7.2-14.01,16.66-13.98,28.4,0,3.23,.34,6.47,.63,9.69,.64,7.14,2.38,14.04,4.82,20.77,2.82,7.74,7.11,14.73,11.11,21.87,1.71,3.05,2.28,3.19,5.81,2.83,3.26-.34,6.58-.33,9.86-.24,1.54,.04,2.33,1.3,2.38,2.83,.05,1.49-.53,2.7-2.06,3.13-.83,.24-1.75,.34-2.61,.26-6.38-.58-12.16,1.15-17.39,4.69-5.87,3.97-7.9,11.47-5.01,17.83,1.03,2.27,2.71,3.49,5.24,3.47,2.42-.02,4.84,0,7.25,0Zm187.95-28.99c.54-.03,.78,0,1-.06,.63-.16,1.25-.34,1.86-.54,8.34-2.67,15.86-6.9,22.86-12.09,6.32-4.69,12.17-9.87,17.01-16.12,9.59-12.39,13.98-26.63,14.35-42.09,.16-6.85-.55-13.73-1.06-20.58-.21-2.75-.95-5.45-1.55-8.7-.31,.78-.44,1.03-.51,1.29-1.06,3.85-2.2,7.69-3.17,11.57-4.55,18.15-14.73,32.42-29.94,43.13-2.46,1.73-3.83,3.78-4.44,6.65-2.08,9.74-5.59,18.96-10.5,27.62-1.85,3.27-3.84,6.46-5.92,9.92Zm-56.75-229.95c-.1,.69-.15,1.16-.24,1.61-.75,3.75-1.55,7.5-2.22,11.26-.11,.62,.36,1.35,.57,2.03,.6-.33,1.39-.52,1.76-1.03,1.46-2,2.78-4.09,4.17-6.15,3.27-4.83,6.56-9.65,9.79-14.51,.41-.62,.48-1.45,.71-2.19-.76-.21-1.51-.57-2.27-.6-2.18-.08-4.36-.03-6.55-.03-1.99,0-3.99,0-6.15,0,1.23-6.18,2.41-12.14,3.61-18.17h-20.06c-.03,.53-.07,.99-.08,1.45,0,7.96-.01,15.93,0,23.89,0,2.25,.18,2.42,2.41,2.42,4.77,0,9.54,0,14.55,0Zm-104.54-27.78c0,8.85-.03,17.57,.06,26.28,0,.51,.87,1.17,1.47,1.48,.47,.24,1.15,.06,1.74,.06,4.47,0,8.94,0,13.52,0-.1,.75-.13,1.33-.25,1.89-.72,3.64-1.5,7.26-2.15,10.91-.11,.62,.35,1.33,.54,2,.6-.33,1.39-.52,1.75-1.03,1.84-2.59,3.55-5.28,5.33-7.92,2.86-4.25,5.75-8.48,8.57-12.75,.36-.54,.74-1.39,.55-1.87-.16-.42-1.12-.69-1.75-.72-2-.09-4.01-.03-6.01-.03-2.27,0-4.54,0-6.98,0,1.22-6.25,2.39-12.23,3.58-18.31h-19.99Zm49.95,38.27c1.65-.07,3.04-.15,4.43-.2,3.4-.11,6.8-.28,10.2-.26,1.99,.01,3.98,.38,5.98,.53,1.86,.14,2.39-.45,1.95-2.29-2.28-9.5-4.56-18.99-6.88-28.48-.76-3.09-2.73-3.99-5.67-2.7-1.81,.79-2.87,2.18-3.32,4.08-1.36,5.78-2.76,11.55-4.09,17.33-.89,3.88-1.69,7.79-2.6,11.98Zm-83.91,31.78c.15,.05,.29,.09,.44,.14,.54-.83,1.07-1.67,1.62-2.49,8.92-13.33,21.53-19.37,37.38-18.34,6.12,.4,12.11,.44,18.06-1.06,.66-.17,1.26-.59,1.88-.89-.68-.17-1.37-.47-2.05-.48-12.56-.03-25.12-.02-37.67-.04-3.17,0-3.39-.26-4.16-3.34-1.64-6.56-3.29-13.13-5.01-19.67-.96-3.64-2.08-7.23-3.13-10.85-.96,4.17-1.65,8.3-1.97,12.46-.39,5.07,.31,10.03,3.01,14.47,1.18,1.93,.95,3.53-.13,5.42-2.01,3.52-3.99,7.09-5.62,10.8-1.93,4.39-2.62,9.09-2.66,13.86Zm225.54-80.4c-2.06-3.43-4.62-6.08-7.57-8.35-7.15-5.5-15.43-7.25-24.24-7.23-1.43,0-1.6,.89-1.6,2,.01,4.07,.01,8.13,.03,12.2,0,.45,.08,.89,.13,1.38h33.24Zm-37.18,78.66c.14-.07,.29-.15,.43-.22-.11-.69-.18-1.38-.35-2.05-1.67-6.8-4.71-12.91-9.23-18.27-2.28-2.71-2.32-3.21-.63-6.27,2.66-4.84,4.26-9.97,4-15.54-.11-2.37-.61-4.73-.93-7.09-.17,.02-.34,.04-.51,.07-.07,.15-.17,.3-.21,.46-1.81,7.68-3.63,15.35-5.39,23.03-.9,3.93-1.62,4.56-5.59,4.56-12.67-.02-25.35-.02-38.02-.03-.59,0-1.18,.06-1.77,.09,.59,.68,1.2,1.06,1.85,1.24,5.16,1.46,10.42,2.07,15.74,1.37,5.27-.69,10.47-.67,15.6,.76,9.08,2.53,16.49,7.62,22.47,14.86,.84,1.02,1.7,2.03,2.56,3.04ZM104.92,92.05c0-3.9,0-7.66,0-11.41q0-3.64-3.69-3.71c-.06,0-.12,0-.18,0-9.39,.38-17.11,4.33-23.45,11.13-1.04,1.11-1.8,2.49-2.89,4.03,10.35,0,20.2,0,30.04,0,.22,0,.44-.08,.17-.03Z"/>
  <path class="cls-2" d="M227.97,342.62c0-15.52,0-31.03-.02-46.55,0-1.23-.12-2.48-.36-3.68-.3-1.51-1.17-2.63-2.86-2.62-1.7,0-2.54,1.11-2.8,2.66-.19,1.16-.3,2.34-.3,3.51,0,29.68,0,59.35,.02,89.03,0,.47-.02,.94,0,1.42,.08,1.72-.84,2.52-2.45,2.52-8.08,0-16.16-.04-24.25-.05-1.15,0-1.77-.48-1.76-1.68,0-.65-.05-1.3-.05-1.95,0-30.09,.02-60.18-.02-90.26,0-1.01-.2-2.24-.79-2.97-.71-.88-2.13-2.01-2.9-1.8-.98,.27-1.77,1.7-2.35,2.78-.35,.66-.2,1.62-.2,2.44,0,30.62,.02,61.24,.02,91.86,0,6.85-1.56,13.23-6.07,18.59-5.46,6.51-12.49,9.91-20.98,10.1-6.31,.14-12.63,.15-18.94,.04-7.02-.12-10.89-4.08-11.41-11.1-.83-11.26,4.58-18.1,14.84-22.51,5.53-2.38,11.37-2.95,17.33-2.7,.77,.03,1.53,.12,2.3,.08,2.2-.11,3.14-.91,3.26-2.7,.14-1.98-.8-3.23-2.86-3.55-1.39-.21-2.82-.24-4.23-.26-3.19-.04-6.37-.07-9.56,.02-1.24,.03-1.78-.29-1.95-1.59-1.02-7.65-2.12-15.29-3.19-22.93-1.6-11.44-3.2-22.88-4.77-34.32-.48-3.5-.85-7.02-1.34-10.53-.78-5.63-2.93-10.73-5.58-15.73-3.55-6.71-6.86-13.55-10.06-20.44-4.52-9.73-7.55-19.92-8.82-30.6-.42-3.57-.7-7.16-1.05-10.73-.17-1.72,.49-2.83,2.09-3.67,1.77-.93,3.22-2.59,5.05-3.24,1.73-.61,4.17-1.06,5.63-.3,7.3,3.79,14.89,7.08,21.44,12.27,6.58,5.21,14.23,8.42,22.47,9.77,7.27,1.19,14.46,2.61,21.63,4.33,9.7,2.34,19.36,1.36,28.79-1.55,3.99-1.23,8.08-1.49,12.1-2.28,9.58-1.88,19.24-3.71,27.52-9.47,4.11-2.86,8.19-5.78,12.46-8.38,3.01-1.83,6.31-3.18,9.48-4.74,.05-.03,.13-.02,.16-.06,2.99-3.04,5.55-1.41,8.22,.61,2.25,1.7,4.62,3.27,7.05,4.72,1.91,1.14,2.59,2.59,2.44,4.82-.84,12.41-3.55,24.4-8.31,35.85-2.39,5.75-5.27,11.32-8.3,16.76-5.27,9.46-8.33,19.55-9.72,30.24-1.71,13.21-3.58,26.39-5.34,39.59-.42,3.13-.63,6.29-1.08,9.42-.51,3.59-1.22,7.14-1.71,10.73-.16,1.18-.66,1.44-1.71,1.43-3.89-.04-7.79-.06-11.68,0-1.04,.02-2.1,.21-3.09,.52-1.77,.54-2.53,1.9-2.22,3.64,.29,1.64,1.63,2.48,3.52,2.5,4.09,.05,8.26-.24,12.26,.42,8.9,1.46,16.46,5.47,20.65,13.89,4.65,9.32,.19,18.21-8.03,21.43-.97,.38-2.06,.59-3.1,.58-5.78-.03-11.55-.12-17.33-.23-8.3-.16-15.42-2.97-20.9-9.43-4.35-5.14-6.24-11.17-6.28-17.79-.07-12.98-.02-25.96-.02-38.94,0-2.42,0-4.84,0-7.26h0Z"/>
  <path class="cls-2" d="M203.81,92.08c-29.26,0-58.52,0-87.78,.03-1.4,0-1.89-.37-2.13-1.78-1.59-9.09,.51-17.55,4.22-25.76,4.02-8.9,10.47-15.61,18.8-20.54,4.84-2.86,8.95-6.48,12.45-10.86,6.5-8.13,15.06-12.3,25.3-13.67,4.46-.6,8.92-1.74,13.16-3.23,10.13-3.57,20.19-3.74,30.34-.37,2.29,.76,4.49,1.8,6.81,2.43,2.14,.58,4.37,.94,6.58,1.13,11.32,.97,20.73,5.49,27.76,14.59,2.69,3.48,5.98,6.21,9.84,8.45,12.64,7.36,20.08,18.57,23.32,32.7,1.14,4.97,1.67,9.98,1.18,15.1-.14,1.47-.64,1.81-2.05,1.81-29.26-.04-58.52-.03-87.78-.03Z"/>
  <path class="cls-2" d="M115.34,188.79c-1.09-16.17,14.03-26.99,25.28-28.34,3.24-.39,6.6-.35,9.85,.03,9.25,1.09,17.97-.31,26.16-4.79,11.62-6.35,24-8.14,36.98-6.17,7.04,1.07,13.76,3.17,19.97,6.76,7.56,4.37,15.7,5.52,24.24,4.18,13.38-2.11,28.44,5.21,33.99,16.93,3.03,6.39,4.22,13.16,1.41,20.03-1.87,4.57-5.37,7.88-9.22,10.73-2.87,2.13-5.95,4.05-9.14,5.66-5.75,2.9-11.3,6.08-16.48,9.92-8.93,6.63-19.03,10.01-30.12,10.34-3.42,.1-6.62,.84-9.81,2-9.48,3.46-19.05,3.55-28.59,.33-4.86-1.64-9.87-2.22-14.92-2.69-8.27-.77-15.73-3.7-22.13-8.93-4.53-3.7-9.43-6.61-14.82-8.79-7.65-3.1-13.92-8.05-19.03-14.52-3.04-3.85-3.88-8.23-3.62-12.68Zm90.5-24.88c-5.06,.01-8.65,1.21-12.04,3.13-5.37,3.04-8.29,7.86-7.88,13.81,.43,6.23,3.48,11.34,9.8,13.74,.66,.25,1.33,.49,1.96,.81,1.92,.96,2.47,2.15,2.2,4.31-.12,.93-.09,1.88-.07,2.82,.07,2.7-1.09,3.99-3.83,3.79-1.98-.15-3.98-.5-5.88-1.07-3.96-1.2-7.32-.7-10.36,2.39-3.57,3.63-7.96,5.86-13.17,5.09-2.9-.42-5.74-1.53-8.47-2.67-3.58-1.5-4.6-.86-6.79,1.99-1.04,1.36-.73,2.89,.71,3.85,9.82,6.57,20.73,7.99,31.06,.24,.65-.49,1.59-.84,2.4-.84,12.8-.05,25.6-.05,38.4,0,.74,0,1.62,.35,2.21,.82,8.74,6.86,21.67,7.89,32.26-.9,.97-.81,.99-1.63,.2-2.58-3.16-3.79-4.27-4.04-8.68-1.91-.11,.05-.22,.1-.32,.16-6.06,3.61-14.86,2.45-19.74-3.06-2.98-3.36-6.56-3.92-10.76-2.76-2.29,.63-4.74,.88-7.13,.95-2.29,.06-3.3-1.12-3.41-3.4-.06-1.35,.05-2.72-.05-4.07-.12-1.58,.65-2.37,2.05-2.85,1.39-.48,2.79-.97,4.09-1.65,7.04-3.66,11.35-13.05,6.82-20.79-3.66-6.28-9.71-8.77-15.59-9.31Z"/>
  <path class="cls-2" d="M294.08,211.45c2.46-3.52,4.88-6.71,7-10.09,5.12-8.14,7.04-17.14,6.73-26.68-.23-7.15-2.17-13.83-5.47-20.13-.98-1.87-2.23-3.61-3.36-5.4-1.28-2.03-1.53-4.05-.56-6.37,2.45-5.85,2.86-12,2.27-18.25-.45-4.76-.91-9.51-1.28-14.27-.24-3.04,.17-3.42,3.17-3.42,9.74,0,19.47,.02,29.21,.02,4.4,0,7.26,2.65,7.57,7.08,.13,1.82,.17,3.65,.29,5.48,.15,2.32,1.03,4.32,2.6,6.05,7.6,8.36,4.79,20.59-.43,26.26-5.06,5.5-5.05,10.92-.04,16.74,8.1,9.39,9.31,20,5.66,31.47-1.46,4.59-3.52,8.87-6.83,12.46-4.46,4.85-10.07,7.39-16.5,8.44-11.63,1.9-21.21-2.5-30.02-9.38Z"/>
  <path class="cls-2" d="M60.29,189.22c.46-7.41,2.82-13.94,7.21-19.78,.96-1.27,1.99-2.5,2.78-3.87,2.58-4.46,2.32-8.43-.92-12.45-2.69-3.35-5.03-6.81-5.78-11.16-.98-5.69,.18-10.8,3.54-15.56,1.52-2.17,2.39-4.79,3.52-7.23,.17-.36,.26-.84,.16-1.21-.9-3.32,.83-5.94,2.23-8.65,.8-1.55,2.02-2.36,3.83-2.36,9.56,0,19.11-.04,28.67-.04,2.18,0,2.62,.44,2.49,2.62-.35,5.83-.76,11.65-1.17,17.47-.38,5.29,.05,10.48,1.93,15.49,.63,1.68,.37,3.18-.5,4.72-5.38,9.55-7.97,19.82-6.94,30.73,.74,7.83,2.56,15.47,6.98,22.22,2.26,3.45,4.41,6.97,6.7,10.4,.76,1.14,.75,1.77-.38,2.72-5.53,4.64-12,6.81-19.04,7.76-7.46,1.01-14.42-.29-20.81-4.23-6.55-4.05-10.37-10.2-12.47-17.43-.96-3.31-1.38-6.78-2.04-10.17Z"/>
  <path class="cls-2" d="M296.8,388.78c-1.53,0-3.08-.14-4.6,.03-2.62,.3-4.55-.83-6.26-2.62-.16-.17-.35-.33-.48-.52-2.12-3.02-4.82-5.36-8.11-7.07-1.54-.8-2.89-1.97-4.42-2.81-1.35-.74-1.53-1.86-1.32-3.13,.42-2.52,1-5.02,1.37-7.55,.35-2.44,.41-4.93,.77-7.37,.53-3.59,1.3-7.15,1.81-10.74,1.77-12.48,3.6-24.96,5.13-37.47,.95-7.73,3.13-14.91,7.11-21.64,2.94-4.96,5.42-10.2,8.11-15.3,1.12-2.13,1.55-2.25,3.73-1.19,10.1,4.93,15.3,13.36,16.87,24.16,2.53,17.41-1.33,33.6-9.88,48.8-2.05,3.65-4.22,7.23-6.22,10.9-.93,1.7-2.13,2.27-4.04,2.05-3.04-.35-6.11-.56-9.17-.68-2.73-.1-4.67,1.39-4.61,3.32,.06,1.99,1.93,3.33,4.72,3.18,5.83-.33,11.36,.99,16.73,3.06,.94,.36,1.88,1.07,2.52,1.86,2.65,3.27,4.3,7.07,4.94,11.19,.79,5.16-3.12,9.39-8.5,9.51-2.06,.05-4.13,0-6.19,0v.02Z"/>
  <path class="cls-2" d="M117.09,389.09c-2.42,0-4.84-.01-7.25,0-2.54,.02-4.21-1.2-5.24-3.47-2.89-6.37-.86-13.86,5.01-17.83,5.23-3.54,11.01-5.26,17.39-4.69,.86,.08,1.78-.03,2.61-.26,1.52-.43,2.1-1.64,2.06-3.13-.05-1.53-.83-2.79-2.38-2.83-3.28-.09-6.6-.1-9.86,.24-3.53,.36-4.1,.22-5.81-2.83-4-7.14-8.29-14.13-11.11-21.87-2.45-6.73-4.18-13.62-4.82-20.77-.29-3.22-.62-6.46-.63-9.69-.03-11.75,4.72-21.2,13.98-28.4,.98-.76,1.94-1.54,2.98-2.21,2.17-1.4,3.13-1.13,4.35,1.16,2.35,4.42,4.73,8.83,7.01,13.28,1.96,3.82,4.02,7.61,5.65,11.57,2.4,5.85,2.63,12.18,3.51,18.35,1.36,9.51,2.77,19.02,4.1,28.53,1.16,8.29,2.19,16.59,3.36,24.88,.59,4.17-.74,7.17-4.56,9.21-3.9,2.08-7.12,5.04-9.5,8.81-1,1.59-2.25,2.19-4.11,2.07-2.23-.15-4.48-.04-6.72-.04,0-.02,0-.05,0-.07Z"/>
  <path class="cls-2" d="M305.04,360.1c2.07-3.47,4.06-6.66,5.92-9.92,4.91-8.66,8.42-17.88,10.5-27.62,.61-2.87,1.98-4.91,4.44-6.65,15.21-10.72,25.38-24.98,29.94-43.13,.97-3.88,2.1-7.72,3.17-11.57,.07-.26,.2-.51,.51-1.29,.6,3.25,1.34,5.95,1.55,8.7,.51,6.85,1.22,13.73,1.06,20.58-.37,15.46-4.76,29.7-14.35,42.09-4.84,6.26-10.69,11.44-17.01,16.12-7.01,5.19-14.52,9.42-22.86,12.09-.62,.2-1.24,.38-1.86,.54-.22,.06-.45,.03-1,.06Z"/>
  <path class="cls-3" d="M248.29,130.15c-5.02,0-9.78,0-14.55,0-2.23,0-2.41-.18-2.41-2.42,0-7.96,0-15.93,0-23.89,0-.46,.05-.92,.08-1.45h20.06c-1.2,6.03-2.38,11.99-3.61,18.17,2.16,0,4.16,0,6.15,0,2.18,0,4.37-.05,6.55,.03,.76,.03,1.51,.39,2.27,.6-.23,.74-.3,1.58-.71,2.19-3.23,4.86-6.52,9.67-9.79,14.51-1.39,2.05-2.71,4.15-4.17,6.15-.37,.5-1.16,.69-1.76,1.03-.2-.68-.68-1.41-.57-2.03,.67-3.77,1.47-7.51,2.22-11.26,.09-.45,.14-.92,.24-1.61Z"/>
  <path class="cls-3" d="M143.75,102.38h19.99c-1.19,6.07-2.36,12.06-3.58,18.31,2.44,0,4.71,0,6.98,0,2,0,4.01-.06,6.01,.03,.62,.03,1.58,.3,1.75,.72,.19,.48-.19,1.33-.55,1.87-2.83,4.27-5.72,8.5-8.57,12.75-1.77,2.64-3.49,5.32-5.33,7.92-.36,.5-1.16,.69-1.75,1.03-.19-.67-.65-1.38-.54-2,.65-3.65,1.43-7.27,2.15-10.91,.11-.56,.15-1.14,.25-1.89-4.59,0-9.05,0-13.52,0-.59,0-1.28,.19-1.74-.06-.6-.31-1.47-.97-1.47-1.48-.09-8.71-.06-17.43-.06-26.28Z"/>
  <path class="cls-2" d="M193.7,140.65c.91-4.19,1.71-8.1,2.6-11.98,1.33-5.79,2.73-11.56,4.09-17.33,.45-1.9,1.51-3.28,3.32-4.08,2.94-1.29,4.91-.39,5.67,2.7,2.32,9.49,4.61,18.98,6.88,28.48,.44,1.83-.09,2.43-1.95,2.29-1.99-.15-3.98-.52-5.98-.53-3.4-.02-6.8,.15-10.2,.26-1.39,.04-2.78,.12-4.43,.2Z"/>
  <path class="cls-2" d="M109.79,172.43c.04-4.77,.74-9.48,2.66-13.86,1.63-3.71,3.6-7.28,5.62-10.8,1.08-1.89,1.31-3.49,.13-5.42-2.7-4.44-3.4-9.4-3.01-14.47,.32-4.16,1.01-8.29,1.97-12.46,1.05,3.61,2.17,7.21,3.13,10.85,1.72,6.54,3.37,13.1,5.01,19.67,.77,3.08,.98,3.33,4.16,3.34,12.56,.02,25.12,0,37.67,.04,.68,0,1.37,.31,2.05,.48-.63,.3-1.22,.72-1.88,.89-5.95,1.5-11.93,1.46-18.06,1.06-15.84-1.03-28.46,5.01-37.38,18.34-.55,.82-1.08,1.66-1.62,2.49-.15-.05-.29-.09-.44-.14Z"/>
  <path class="cls-2" d="M335.33,92.03h-33.24c-.05-.49-.13-.94-.13-1.38-.02-4.07-.02-8.13-.03-12.2,0-1.1,.17-1.99,1.6-2,8.81-.02,17.1,1.74,24.24,7.23,2.94,2.26,5.51,4.92,7.57,8.35Z"/>
  <path class="cls-2" d="M298.16,170.68c-.85-1.01-1.71-2.02-2.56-3.04-5.98-7.24-13.39-12.33-22.47-14.86-5.12-1.43-10.33-1.45-15.6-.76-5.32,.7-10.58,.09-15.74-1.37-.65-.19-1.26-.56-1.85-1.24,.59-.03,1.18-.09,1.77-.09,12.67,0,25.35,.01,38.02,.03,3.97,0,4.69-.63,5.59-4.56,1.76-7.69,3.59-15.36,5.39-23.03,.04-.16,.14-.3,.21-.46,.17-.02,.34-.04,.51-.07,.32,2.36,.81,4.72,.93,7.09,.26,5.56-1.34,10.7-4,15.54-1.68,3.07-1.65,3.57,.63,6.27,4.53,5.37,7.56,11.47,9.23,18.27,.17,.67,.23,1.37,.35,2.05-.14,.07-.29,.15-.43,.22Z"/>
  <path class="cls-2" d="M104.92,92.05c.28-.05,.06,.03-.17,.03-9.84,0-19.69,0-30.04,0,1.09-1.54,1.85-2.91,2.89-4.03,6.33-6.8,14.05-10.75,23.45-11.13,.06,0,.12,0,.18,0q3.7,.07,3.69,3.71c0,3.75,0,7.51,0,11.41Z"/>
  <path class="cls-1" d="M205.84,163.92c5.88,.54,11.93,3.04,15.59,9.31,4.52,7.75,.22,17.14-6.82,20.79-1.3,.68-2.7,1.17-4.09,1.65-1.4,.48-2.17,1.27-2.05,2.85,.1,1.35-.01,2.71,.05,4.07,.11,2.28,1.12,3.47,3.41,3.4,2.39-.07,4.84-.31,7.13-.95,4.21-1.16,7.78-.61,10.76,2.76,4.89,5.51,13.68,6.67,19.74,3.06,.1-.06,.21-.11,.32-.16,4.41-2.13,5.52-1.88,8.68,1.91,.79,.95,.77,1.78-.2,2.58-10.59,8.79-23.52,7.76-32.26,.9-.59-.47-1.47-.81-2.21-.82-12.8-.05-25.6-.05-38.4,0-.81,0-1.75,.36-2.4,.84-10.33,7.75-21.24,6.33-31.06-.24-1.44-.96-1.76-2.49-.71-3.85,2.19-2.85,3.22-3.49,6.79-1.99,2.72,1.15,5.57,2.25,8.47,2.67,5.21,.76,9.6-1.46,13.17-5.09,3.03-3.08,6.39-3.59,10.36-2.39,1.9,.58,3.9,.93,5.88,1.07,2.74,.2,3.9-1.09,3.83-3.79-.03-.94-.05-1.89,.07-2.82,.27-2.16-.29-3.35-2.2-4.31-.63-.32-1.3-.55-1.96-.81-6.32-2.4-9.37-7.51-9.8-13.74-.41-5.95,2.51-10.77,7.88-13.81,3.39-1.92,6.98-3.11,12.04-3.13Z"/>
</svg>